{
	"asset":{
		"generator":"Khronos glTF Blender I/O v4.1.63",
		"version":"2.0"
	},
	"scene":0,
	"scenes":[
		{
			"name":"Scene",
			"nodes":[
				0,
				1,
				2,
				3
			]
		}
	],
	"nodes":[
		{
			"mesh":0,
			"name":"00.Cube"
		},
		{
			"mesh":1,
			"name":"01.Sphere"
		},
		{
			"mesh":2,
			"name":"02.Cone"
		},
		{
			"mesh":3,
			"name":"03.Torus"
		}
	],
	"meshes":[
		{
			"name":"00.Cube",
			"primitives":[
				{
					"attributes":{
						"POSITION":0,
						"COLOR_0":1
					},
					"indices":2
				}
			]
		},
		{
			"name":"01.Sphere",
			"primitives":[
				{
					"attributes":{
						"POSITION":3,
						"COLOR_0":4
					},
					"indices":5
				}
			]
		},
		{
			"name":"02.Cone",
			"primitives":[
				{
					"attributes":{
						"POSITION":6,
						"COLOR_0":7
					},
					"indices":8
				}
			]
		},
		{
			"name":"03.Torus",
			"primitives":[
				{
					"attributes":{
						"POSITION":9,
						"COLOR_0":10
					},
					"indices":11
				}
			]
		}
	],
	"accessors":[
		{
			"bufferView":0,
			"componentType":5126,
			"count":8,
			"max":[
				0.8727464079856873,
				1.7638134956359863,
				5.213681221008301
			],
			"min":[
				-0.8727464079856873,
				0.018320739269256592,
				3.4681882858276367
			],
			"type":"VEC3"
		},
		{
			"bufferView":1,
			"componentType":5126,
			"count":8,
			"type":"VEC3"
		},
		{
			"bufferView":2,
			"componentType":5123,
			"count":36,
			"type":"SCALAR"
		},
		{
			"bufferView":3,
			"componentType":5126,
			"count":162,
			"max":[
				1.041838526725769,
				1.9219048023223877,
				2.371105194091797
			],
			"min":[
				-1.0418384075164795,
				-0.16177219152450562,
				0.2874283790588379
			],
			"type":"VEC3"
		},
		{
			"bufferView":4,
			"componentType":5126,
			"count":162,
			"type":"VEC3"
		},
		{
			"bufferView":5,
			"componentType":5123,
			"count":960,
			"type":"SCALAR"
		},
		{
			"bufferView":6,
			"componentType":5126,
			"count":21,
			"max":[
				1.0101736783981323,
				2.0332508087158203,
				-0.7072967290878296
			],
			"min":[
				-1.0101736783981323,
				0.012903451919555664,
				-2.7276439666748047
			],
			"type":"VEC3"
		},
		{
			"bufferView":7,
			"componentType":5126,
			"count":21,
			"type":"VEC3"
		},
		{
			"bufferView":8,
			"componentType":5123,
			"count":114,
			"type":"SCALAR"
		},
		{
			"bufferView":9,
			"componentType":5126,
			"count":384,
			"max":[
				1.3575546741485596,
				0.9402216672897339,
				-3.390376329421997
			],
			"min":[
				-1.3575546741485596,
				0.03518518805503845,
				-6.105485916137695
			],
			"type":"VEC3"
		},
		{
			"bufferView":10,
			"componentType":5126,
			"count":384,
			"type":"VEC3"
		},
		{
			"bufferView":11,
			"componentType":5123,
			"count":2304,
			"type":"SCALAR"
		}
	],
	"bufferViews":[
		{
			"buffer":0,
			"byteLength":96,
			"byteOffset":0,
			"target":34962
		},
		{
			"buffer":0,
			"byteLength":96,
			"byteOffset":96,
			"target":34962
		},
		{
			"buffer":0,
			"byteLength":72,
			"byteOffset":192,
			"target":34963
		},
		{
			"buffer":0,
			"byteLength":1944,
			"byteOffset":264,
			"target":34962
		},
		{
			"buffer":0,
			"byteLength":1944,
			"byteOffset":2208,
			"target":34962
		},
		{
			"buffer":0,
			"byteLength":1920,
			"byteOffset":4152,
			"target":34963
		},
		{
			"buffer":0,
			"byteLength":252,
			"byteOffset":6072,
			"target":34962
		},
		{
			"buffer":0,
			"byteLength":252,
			"byteOffset":6324,
			"target":34962
		},
		{
			"buffer":0,
			"byteLength":228,
			"byteOffset":6576,
			"target":34963
		},
		{
			"buffer":0,
			"byteLength":4608,
			"byteOffset":6804,
			"target":34962
		},
		{
			"buffer":0,
			"byteLength":4608,
			"byteOffset":11412,
			"target":34962
		},
		{
			"buffer":0,
			"byteLength":4608,
			"byteOffset":16020,
			"target":34963
		}
	],
	"buffers":[
		{
			"byteLength":20628,
			"uri":"shapes.bin"
		}
	]
}
