{
	"asset":{
		"generator":"Khronos glTF Blender I/O v4.1.63",
		"version":"2.0"
	},
	"scene":0,
	"scenes":[
		{
			"name":"Scene",
			"nodes":[
				0,
				1,
				2,
				3
			]
		}
	],
	"nodes":[
		{
			"mesh":0,
			"name":"Object_0"
		},
		{
			"mesh":1,
			"name":"Object_1"
		},
		{
			"mesh":2,
			"name":"Object_2"
		},
		{
			"mesh":3,
			"name":"Object_3"
		}
	],
	"materials":[
		{
			"doubleSided":true,
			"emissiveFactor":[
				1,
				1,
				1
			],
			"emissiveTexture":{
				"index":0
			},
			"name":"Body_SG1",
			"normalTexture":{
				"index":1
			},
			"pbrMetallicRoughness":{
				"baseColorTexture":{
					"index":2
				},
				"metallicRoughnessTexture":{
					"index":3
				}
			}
		},
		{
			"alphaMode":"BLEND",
			"doubleSided":true,
			"name":"Ground_SG",
			"pbrMetallicRoughness":{
				"baseColorFactor":[
					0.007726100739091635,
					0.00757813872769475,
					0.00757813872769475,
					1
				],
				"baseColorTexture":{
					"index":4
				},
				"metallicFactor":0
			}
		},
		{
			"doubleSided":true,
			"name":"Interior_SG",
			"normalTexture":{
				"index":5
			},
			"pbrMetallicRoughness":{
				"baseColorTexture":{
					"index":6
				},
				"metallicRoughnessTexture":{
					"index":7
				}
			}
		},
		{
			"alphaMode":"BLEND",
			"doubleSided":true,
			"name":"Windows_SG",
			"normalTexture":{
				"index":8
			},
			"pbrMetallicRoughness":{
				"baseColorFactor":[
					1,
					1,
					1,
					0.7300000190734863
				],
				"baseColorTexture":{
					"index":9
				},
				"metallicFactor":0,
				"metallicRoughnessTexture":{
					"index":10
				}
			}
		}
	],
	"meshes":[
		{
			"name":"Object_0",
			"primitives":[
				{
					"attributes":{
						"POSITION":0,
						"NORMAL":1,
						"TEXCOORD_0":2,
						"TANGENT":3
					},
					"indices":4,
					"material":0
				}
			]
		},
		{
			"name":"Object_1",
			"primitives":[
				{
					"attributes":{
						"POSITION":5,
						"NORMAL":6,
						"TEXCOORD_0":7,
						"TANGENT":8
					},
					"indices":9,
					"material":1
				}
			]
		},
		{
			"name":"Object_2",
			"primitives":[
				{
					"attributes":{
						"POSITION":10,
						"NORMAL":11,
						"TEXCOORD_0":12,
						"TANGENT":13
					},
					"indices":14,
					"material":2
				}
			]
		},
		{
			"name":"Object_3",
			"primitives":[
				{
					"attributes":{
						"POSITION":15,
						"NORMAL":16,
						"TEXCOORD_0":17,
						"TANGENT":18
					},
					"indices":19,
					"material":3
				}
			]
		}
	],
	"textures":[
		{
			"sampler":0,
			"source":0
		},
		{
			"sampler":0,
			"source":1
		},
		{
			"sampler":0,
			"source":2
		},
		{
			"sampler":0,
			"source":3
		},
		{
			"sampler":0,
			"source":4
		},
		{
			"sampler":0,
			"source":5
		},
		{
			"sampler":0,
			"source":6
		},
		{
			"sampler":0,
			"source":7
		},
		{
			"sampler":0,
			"source":8
		},
		{
			"sampler":0,
			"source":9
		},
		{
			"sampler":0,
			"source":3
		}
	],
	"images":[
		{
			"mimeType":"image/jpeg",
			"name":"Body_SG1_emissive",
			"uri":"Body_SG1_emissive.jpg"
		},
		{
			"mimeType":"image/jpeg",
			"name":"Body_SG1_normal",
			"uri":"Body_SG1_normal.jpg"
		},
		{
			"mimeType":"image/jpeg",
			"name":"Body_SG1_baseColor",
			"uri":"Body_SG1_baseColor.jpg"
		},
		{
			"mimeType":"image/png",
			"name":"Body_SG1_metallicRoughness",
			"uri":"Body_SG1_metallicRoughness.png"
		},
		{
			"mimeType":"image/png",
			"name":"Ground_SG_baseColor",
			"uri":"Ground_SG_baseColor.png"
		},
		{
			"mimeType":"image/jpeg",
			"name":"Interior_SG_normal",
			"uri":"Interior_SG_normal.jpg"
		},
		{
			"mimeType":"image/jpeg",
			"name":"Interior_SG_baseColor",
			"uri":"Interior_SG_baseColor.jpg"
		},
		{
			"mimeType":"image/png",
			"name":"Interior_SG_metallicRoughness",
			"uri":"Interior_SG_metallicRoughness.png"
		},
		{
			"mimeType":"image/png",
			"name":"Windows_SG_normal",
			"uri":"Windows_SG_normal.png"
		},
		{
			"mimeType":"image/png",
			"name":"Body_SG1_baseColor",
			"uri":"Body_SG1_baseColor.png"
		}
	],
	"accessors":[
		{
			"bufferView":0,
			"componentType":5126,
			"count":3816,
			"max":[
				0.7556185722351074,
				1.3324096202850342,
				1.1383566856384277
			],
			"min":[
				-0.6818593740463257,
				-0.003475927049294114,
				-1.2328659296035767
			],
			"type":"VEC3"
		},
		{
			"bufferView":1,
			"componentType":5126,
			"count":3816,
			"type":"VEC3"
		},
		{
			"bufferView":2,
			"componentType":5126,
			"count":3816,
			"type":"VEC2"
		},
		{
			"bufferView":3,
			"componentType":5126,
			"count":3816,
			"type":"VEC4"
		},
		{
			"bufferView":4,
			"componentType":5123,
			"count":17814,
			"type":"SCALAR"
		},
		{
			"bufferView":5,
			"componentType":5126,
			"count":4,
			"max":[
				1.4942846298217773,
				5.192106300455634e-07,
				1.7138700485229492
			],
			"min":[
				-1.4004931449890137,
				-5.192106300455634e-07,
				-1.7138700485229492
			],
			"type":"VEC3"
		},
		{
			"bufferView":6,
			"componentType":5126,
			"count":4,
			"type":"VEC3"
		},
		{
			"bufferView":7,
			"componentType":5126,
			"count":4,
			"type":"VEC2"
		},
		{
			"bufferView":8,
			"componentType":5126,
			"count":4,
			"type":"VEC4"
		},
		{
			"bufferView":9,
			"componentType":5123,
			"count":6,
			"type":"SCALAR"
		},
		{
			"bufferView":10,
			"componentType":5126,
			"count":1530,
			"max":[
				0.5443568825721741,
				0.89411860704422,
				0.581569492816925
			],
			"min":[
				-0.5443576574325562,
				0.19642579555511475,
				-0.8800695538520813
			],
			"type":"VEC3"
		},
		{
			"bufferView":11,
			"componentType":5126,
			"count":1530,
			"type":"VEC3"
		},
		{
			"bufferView":12,
			"componentType":5126,
			"count":1530,
			"type":"VEC2"
		},
		{
			"bufferView":13,
			"componentType":5126,
			"count":1530,
			"type":"VEC4"
		},
		{
			"bufferView":14,
			"componentType":5123,
			"count":6744,
			"type":"SCALAR"
		},
		{
			"bufferView":15,
			"componentType":5126,
			"count":172,
			"max":[
				0.5465956926345825,
				1.2327579259872437,
				0.4807862937450409
			],
			"min":[
				-0.5465956926345825,
				0.7728880047798157,
				-0.8135009407997131
			],
			"type":"VEC3"
		},
		{
			"bufferView":16,
			"componentType":5126,
			"count":172,
			"type":"VEC3"
		},
		{
			"bufferView":17,
			"componentType":5126,
			"count":172,
			"type":"VEC2"
		},
		{
			"bufferView":18,
			"componentType":5126,
			"count":172,
			"type":"VEC4"
		},
		{
			"bufferView":19,
			"componentType":5123,
			"count":450,
			"type":"SCALAR"
		}
	],
	"bufferViews":[
		{
			"buffer":0,
			"byteLength":45792,
			"byteOffset":0,
			"target":34962
		},
		{
			"buffer":0,
			"byteLength":45792,
			"byteOffset":45792,
			"target":34962
		},
		{
			"buffer":0,
			"byteLength":30528,
			"byteOffset":91584,
			"target":34962
		},
		{
			"buffer":0,
			"byteLength":61056,
			"byteOffset":122112,
			"target":34962
		},
		{
			"buffer":0,
			"byteLength":35628,
			"byteOffset":183168,
			"target":34963
		},
		{
			"buffer":0,
			"byteLength":48,
			"byteOffset":218796,
			"target":34962
		},
		{
			"buffer":0,
			"byteLength":48,
			"byteOffset":218844,
			"target":34962
		},
		{
			"buffer":0,
			"byteLength":32,
			"byteOffset":218892,
			"target":34962
		},
		{
			"buffer":0,
			"byteLength":64,
			"byteOffset":218924,
			"target":34962
		},
		{
			"buffer":0,
			"byteLength":12,
			"byteOffset":218988,
			"target":34963
		},
		{
			"buffer":0,
			"byteLength":18360,
			"byteOffset":219000,
			"target":34962
		},
		{
			"buffer":0,
			"byteLength":18360,
			"byteOffset":237360,
			"target":34962
		},
		{
			"buffer":0,
			"byteLength":12240,
			"byteOffset":255720,
			"target":34962
		},
		{
			"buffer":0,
			"byteLength":24480,
			"byteOffset":267960,
			"target":34962
		},
		{
			"buffer":0,
			"byteLength":13488,
			"byteOffset":292440,
			"target":34963
		},
		{
			"buffer":0,
			"byteLength":2064,
			"byteOffset":305928,
			"target":34962
		},
		{
			"buffer":0,
			"byteLength":2064,
			"byteOffset":307992,
			"target":34962
		},
		{
			"buffer":0,
			"byteLength":1376,
			"byteOffset":310056,
			"target":34962
		},
		{
			"buffer":0,
			"byteLength":2752,
			"byteOffset":311432,
			"target":34962
		},
		{
			"buffer":0,
			"byteLength":900,
			"byteOffset":314184,
			"target":34963
		}
	],
	"samplers":[
		{
			"magFilter":9729,
			"minFilter":9987
		}
	],
	"buffers":[
		{
			"byteLength":315084,
			"uri":"car.bin"
		}
	]
}
